<svg width="1480" height="720" viewBox="0 0 1480 720" fill="none" xmlns="http://www.w3.org/2000/svg">
<rect width="1480" height="720" fill="white"/>
<path fill-rule="evenodd" clip-rule="evenodd" d="M340.896 169.335C329.99 174.895 315.257 191.118 313.251 267.435C313.156 271.065 313.099 274.726 313.05 278.406C301.665 232.455 291.651 208.862 277.484 204.098C273.838 202.874 266.645 201.85 259.306 208.712C239.097 227.62 240.891 276.168 249.533 337.805C239.03 318.002 227.174 302.049 215.261 298.845C208.873 297.125 202.734 298.765 197.977 303.46C190.936 310.433 187.263 326.078 187.215 346.836V347.741C187.253 360.9 188.721 376.058 191.685 392.34C198.341 428.902 215.233 485.467 257.83 547.263L263.816 555.935L280.543 543.533L274.558 534.849C234.666 476.992 218.638 424.218 212.211 390.121C205.113 352.396 208.048 327.023 211.415 320.13C214.743 322.319 222.359 330.186 233.016 350.864C244.066 372.328 255.518 402.017 265.225 434.432L285.177 429.469C284.025 422.467 282.826 415.416 281.637 408.344C274.626 366.728 267.374 323.691 264.919 289.168C261.944 247.404 267.019 231.4 272.199 225.472C274.778 228.426 280.908 238.232 289.579 269.941C296.878 296.587 303.659 329.588 310.221 361.516C313.818 379.032 317.222 395.582 320.541 410.292L340.781 406.662C338.209 383.15 332.378 322.588 333.807 268.002C335.15 216.898 342.727 193.793 349.211 188.959C351.369 191.267 357.469 200.686 364.271 237.387C369.594 266.112 373.7 301.619 377.661 335.965C380.155 357.598 382.514 378.028 385.036 395.394L405.487 393.792C405.487 351.301 405.813 306.642 409.716 268.728C415.204 215.575 425.457 202.466 430.397 199.254C431.777 201.422 434.589 207.688 437.256 224.766C439.816 241.057 441.619 262.591 443.518 285.378C446.779 324.428 450.472 368.679 459.268 405.947C470.001 451.471 486.557 474.546 508.437 474.546H508.552C547.235 474.416 578.984 398.615 589.9 350.884L592.278 340.501L572.27 335.586L569.891 345.951C563.723 372.905 553.296 400.277 541.279 421.025C529.625 441.146 517.356 453.191 508.474 453.22H508.446C497.895 453.22 486.98 433.656 479.238 400.873C470.826 365.217 467.211 321.821 464.016 283.547C458.693 219.882 455.451 188.88 439.845 179.739C434.493 176.596 428.2 176.546 422.148 179.63C404.058 188.81 394.418 217.873 389.526 264.868C381.862 211.169 373.44 178.098 358.257 169.544C355.455 167.973 352.482 167.187 349.461 167.187C346.593 167.187 343.696 167.903 340.896 169.335Z" fill="url(#paint0_linear_1831_27)"/>
<path fill-rule="evenodd" clip-rule="evenodd" d="M340.896 169.335C329.99 174.895 315.257 191.118 313.251 267.435C313.156 271.065 313.099 274.726 313.05 278.406C301.665 232.455 291.651 208.862 277.484 204.098C273.838 202.874 266.645 201.85 259.306 208.712C239.097 227.62 240.891 276.168 249.533 337.805C239.03 318.002 227.174 302.049 215.261 298.845C208.873 297.125 202.734 298.765 197.977 303.46C190.936 310.433 187.263 326.078 187.215 346.836V347.741C187.253 360.9 188.721 376.058 191.685 392.34C198.341 428.902 215.233 485.467 257.83 547.263L263.816 555.935L280.543 543.533L274.558 534.849C234.666 476.992 218.638 424.218 212.211 390.121C205.113 352.396 208.048 327.023 211.415 320.13C214.743 322.319 222.359 330.186 233.016 350.864C244.066 372.328 255.518 402.017 265.225 434.432L285.177 429.469C284.025 422.467 282.826 415.416 281.637 408.344C274.626 366.728 267.374 323.691 264.919 289.168C261.944 247.404 267.019 231.4 272.199 225.472C274.778 228.426 280.908 238.232 289.579 269.941C296.878 296.587 303.659 329.588 310.221 361.516C313.818 379.032 317.222 395.582 320.541 410.292L340.781 406.662C338.209 383.15 332.378 322.588 333.807 268.002C335.15 216.898 342.727 193.793 349.211 188.959C351.369 191.267 357.469 200.686 364.271 237.387C369.594 266.112 373.7 301.619 377.661 335.965C380.155 357.598 382.514 378.028 385.036 395.394L405.487 393.792C405.487 351.301 405.813 306.642 409.716 268.728C415.204 215.575 425.457 202.466 430.397 199.254C431.777 201.422 434.589 207.688 437.256 224.766C439.816 241.057 441.619 262.591 443.518 285.378C446.779 324.428 450.472 368.679 459.268 405.947C470.001 451.471 486.557 474.546 508.437 474.546H508.552C547.235 474.416 578.984 398.615 589.9 350.884L592.278 340.501L572.27 335.586L569.891 345.951C563.723 372.905 553.296 400.277 541.279 421.025C529.625 441.146 517.356 453.191 508.474 453.22H508.446C497.895 453.22 486.98 433.656 479.238 400.873C470.826 365.217 467.211 321.821 464.016 283.547C458.693 219.882 455.451 188.88 439.845 179.739C434.493 176.596 428.2 176.546 422.148 179.63C404.058 188.81 394.418 217.873 389.526 264.868C381.862 211.169 373.44 178.098 358.257 169.544C355.455 167.973 352.482 167.187 349.461 167.187C346.593 167.187 343.696 167.903 340.896 169.335Z" fill="url(#paint1_linear_1831_27)"/>
<path d="M788.782 444.883C819.891 444.883 844.26 430.37 844.26 404.453C844.26 379.055 828.705 369.466 805.374 364.542L782.561 360.136C771.413 358.322 764.932 353.657 764.932 345.623C764.932 335.774 774.006 330.332 787.227 330.332C802.522 330.332 811.596 338.107 812.114 350.288H841.149C841.149 324.371 819.891 306.489 787.745 306.489C755.34 306.489 736.157 323.334 736.157 345.363C736.157 368.17 751.452 380.351 773.228 384.757L796.819 389.162C809.003 391.754 814.447 396.937 814.447 404.453C814.447 413.783 805.633 419.485 788.782 419.485C771.932 419.485 761.562 411.191 761.562 397.974H732.009C732.787 426.223 752.748 444.883 788.782 444.883Z" fill="#32333C"/>
<path d="M924.04 444.883C934.15 444.883 942.705 443.328 946.853 442.032V417.152H944.261C940.891 418.189 936.743 418.966 931.299 418.966C919.374 418.966 913.93 413.524 913.93 400.825V333.96H946.335V308.821H913.93V273.315H911.337L885.672 280.572V308.821H862.341V333.96H884.376V406.008C884.376 429.074 895.524 444.883 924.04 444.883Z" fill="#32333C"/>
<path d="M1061.53 308.821V387.089C1061.53 405.749 1053.49 417.411 1033.53 417.411C1013.57 417.411 1005.53 405.749 1005.53 387.089V308.821H975.978V391.754C975.978 421.558 996.198 444.624 1033.53 444.624C1071.12 444.624 1091.08 421.558 1091.08 391.754V308.821H1061.53Z" fill="#32333C"/>
<path d="M1196.11 444.883C1230.84 444.883 1251.84 417.412 1251.84 375.427C1251.84 335.774 1232.14 306.489 1196.11 306.489C1176.66 306.489 1164.74 314.782 1158 324.889H1156.96V250.768H1127.41V442.551H1153.59L1156.96 426.482H1158C1164.74 436.59 1176.66 444.883 1196.11 444.883ZM1188.85 418.707C1165.26 418.707 1155.92 398.752 1155.92 375.427C1155.92 352.361 1165.26 332.664 1188.85 332.664C1213.21 332.664 1222.03 352.361 1222.03 375.427C1222.03 399.011 1212.96 418.707 1188.85 418.707Z" fill="#32333C"/>
<defs>
<linearGradient id="paint0_linear_1831_27" x1="389.746" y1="188.184" x2="245.044" y2="539.253" gradientUnits="userSpaceOnUse">
<stop stop-color="#00C989"/>
<stop offset="1" stop-color="#5D41D8"/>
</linearGradient>
<linearGradient id="paint1_linear_1831_27" x1="389.746" y1="188.184" x2="245.044" y2="539.253" gradientUnits="userSpaceOnUse">
<stop stop-color="#00C989"/>
<stop offset="1" stop-color="#5D41D8"/>
</linearGradient>
</defs>
</svg>
